name rise49.5252peak65.1548fall88.8305.mot
datacolumns 19
datarows 12
range 10.21495800000000 10.23329100000000
endheader
time	ground_force1_vx	ground_force1_vy	ground_force1_vz	ground_force1_px	ground_force1_py	ground_force1_pz	ground_force2_vx	ground_force2_vy	ground_force2_vz	ground_force2_px	ground_force2_py	ground_force2_pz	ground_torque1_x	ground_torque1_y	ground_torque1_z	ground_torque2_x	ground_torque2_y	ground_torque2_z	
10.21495800000000	-8.81308100000000	707.56637499999999	44.54403400000000	0.25679300000000	0.00000000000000	0.11740300000000	0.00000000000000	0.00000000000000	0.00000000000000	0.00000000000000	0.00000000000000	0.00000000000000	0.00000000000000	24.72316400000000	0.00000000000000	0.00000000000000	0.00000000000000	0.00000000000000	
10.21661900000000	-9.15829700000000	708.56299000000001	44.58669900000000	0.25614200000000	0.00000000000000	0.11731400000000	0.00000000000000	0.00000000000000	0.00000000000000	0.00000000000000	0.00000000000000	0.00000000000000	0.00000000000000	24.79755700000000	0.00000000000000	0.00000000000000	0.00000000000000	0.00000000000000	
10.21830700000000	-9.51198100000000	709.58340899999996	44.63401800000000	0.25549600000000	0.00000000000000	0.11722600000000	0.00000000000000	0.00000000000000	0.00000000000000	0.00000000000000	0.00000000000000	0.00000000000000	0.00000000000000	24.87682400000000	0.00000000000000	0.00000000000000	0.00000000000000	0.00000000000000	
10.21995400000000	-9.87459600000000	710.62700199999995	44.68583900000000	0.25485300000000	0.00000000000000	0.11713700000000	0.00000000000000	0.00000000000000	0.00000000000000	0.00000000000000	0.00000000000000	0.00000000000000	0.00000000000000	24.96089300000000	0.00000000000000	0.00000000000000	0.00000000000000	0.00000000000000	
10.22162000000000	-10.24655800000000	711.69319900000005	44.74202200000000	0.25421300000000	0.00000000000000	0.11704700000000	0.00000000000000	0.00000000000000	0.00000000000000	0.00000000000000	0.00000000000000	0.00000000000000	0.00000000000000	25.04969300000000	0.00000000000000	0.00000000000000	0.00000000000000	0.00000000000000	
10.22329200000000	-10.62823700000000	712.78148499999998	44.80244200000000	0.25357500000000	0.00000000000000	0.11695800000000	0.00000000000000	0.00000000000000	0.00000000000000	0.00000000000000	0.00000000000000	0.00000000000000	0.00000000000000	25.14314800000000	0.00000000000000	0.00000000000000	0.00000000000000	0.00000000000000	
10.22495400000000	-11.01995200000000	713.89139699999998	44.86699000000000	0.25293900000000	0.00000000000000	0.11686800000000	0.00000000000000	0.00000000000000	0.00000000000000	0.00000000000000	0.00000000000000	0.00000000000000	0.00000000000000	25.24117800000000	0.00000000000000	0.00000000000000	0.00000000000000	0.00000000000000	
10.22662600000000	-11.42197100000000	715.02252099999998	44.93556700000000	0.25230300000000	0.00000000000000	0.11677700000000	0.00000000000000	0.00000000000000	0.00000000000000	0.00000000000000	0.00000000000000	0.00000000000000	0.00000000000000	25.34369900000000	0.00000000000000	0.00000000000000	0.00000000000000	0.00000000000000	
10.22829200000000	-11.83451100000000	716.17448800000000	45.00809000000000	0.25166800000000	0.00000000000000	0.11668700000000	0.00000000000000	0.00000000000000	0.00000000000000	0.00000000000000	0.00000000000000	0.00000000000000	0.00000000000000	25.45062400000000	0.00000000000000	0.00000000000000	0.00000000000000	0.00000000000000	
10.22995200000000	-12.25773400000000	717.34696399999996	45.08448800000000	0.25103200000000	0.00000000000000	0.11659700000000	0.00000000000000	0.00000000000000	0.00000000000000	0.00000000000000	0.00000000000000	0.00000000000000	0.00000000000000	25.56185800000000	0.00000000000000	0.00000000000000	0.00000000000000	0.00000000000000	
10.23162100000000	-12.69174700000000	718.53965200000005	45.16470200000000	0.25039500000000	0.00000000000000	0.11650600000000	0.00000000000000	0.00000000000000	0.00000000000000	0.00000000000000	0.00000000000000	0.00000000000000	0.00000000000000	25.67730300000000	0.00000000000000	0.00000000000000	0.00000000000000	0.00000000000000	
10.23329100000000	-13.13660300000000	719.75228000000004	45.24868500000000	0.24975700000000	0.00000000000000	0.11641600000000	0.00000000000000	0.00000000000000	0.00000000000000	0.00000000000000	0.00000000000000	0.00000000000000	0.00000000000000	25.79685400000000	0.00000000000000	0.00000000000000	0.00000000000000	0.00000000000000	
